<?xml version="1.0" standalone="no"?><!DOCTYPE svg PUBLIC "-//W3C//DTD SVG 1.1//EN" "http://www.w3.org/Graphics/SVG/1.1/DTD/svg11.dtd"><svg t="1679466373765" class="icon" viewBox="0 0 1024 1024" version="1.1" xmlns="http://www.w3.org/2000/svg" p-id="2831" xmlns:xlink="http://www.w3.org/1999/xlink" width="200" height="200"><path d="M512.46 511.71m-447.5 0a447.5 447.5 0 1 0 895 0 447.5 447.5 0 1 0-895 0Z" fill="#F7931A" p-id="2832"></path><path d="M634.45 513.57l-5.04-1.35c43.06 10.77 87.36-14.81 98.94-58.04a81.8 81.8 0 0 0-58.01-100.48l-36.38-9.75 21.62-80.69-51.87-13.9-21.62 80.69-41.59-11.14 21.66-80.83-51.95-13.92-21.66 80.83-95.21-25.51-15.15 56.55 66.28 17.76-69.3 258.63-66.28-17.76-15.15 56.55 95.21 25.51-22.4 83.6 51.95 13.92 22.4-83.6 41.59 11.14-22.39 83.57 51.87 13.9 22.39-83.57 42.87 11.49c59.07 15.83 119.82-19.24 135.65-78.32s-19.36-119.45-78.43-135.28z m-104.5-138.8l37.46 10.04 24.85 6.66c10.08 2.7 18.32 8 24.8 15.53 11.37 12.31 16.23 30.21 11.59 47.5-4.63 17.29-17.79 30.37-33.79 35.34-9.37 3.28-19.15 3.75-29.24 1.05l-24.85-6.66-37.46-10.04 26.64-99.42z m22.55 273.2c-1.18 0.07-1.9-0.12-2.98-0.41l-48.99-13.13-37.46-10.04 26.64-99.42 37.46 10.04 48.99 13.13c1.08 0.29 1.8 0.48 2.79 1.13 25.64 8.03 40.65 35.6 33.6 61.9-7.05 26.3-33.83 42.67-60.05 36.8z" fill="#FFFFFF" p-id="2833"></path></svg>